<svg width="311" height="62" viewBox="0 0 311 62" fill="none" xmlns="http://www.w3.org/2000/svg">
<g clip-path="url(#clip0)">
<rect width="311" height="62" fill="white"/>
<circle cx="172" cy="30" r="29" fill="black"/>
<path d="M17.9375 45.9062C20 45.9062 21.8021 45.2812 23.3438 44.0312C24.8854 42.7812 25.7396 41.2188 25.9062 39.3438H31.375C31.2708 41.2812 30.6042 43.125 29.375 44.875C28.1458 46.625 26.5 48.0208 24.4375 49.0625C22.3958 50.1042 20.2292 50.625 17.9375 50.625C13.3333 50.625 9.66667 49.0938 6.9375 46.0312C4.22917 42.9479 2.875 38.7396 2.875 33.4062V32.4375C2.875 29.1458 3.47917 26.2188 4.6875 23.6562C5.89583 21.0938 7.625 19.1042 9.875 17.6875C12.1458 16.2708 14.8229 15.5625 17.9062 15.5625C21.6979 15.5625 24.8438 16.6979 27.3438 18.9688C29.8646 21.2396 31.2083 24.1875 31.375 27.8125H25.9062C25.7396 25.625 24.9062 23.8333 23.4062 22.4375C21.9271 21.0208 20.0938 20.3125 17.9062 20.3125C14.9688 20.3125 12.6875 21.375 11.0625 23.5C9.45833 25.6042 8.65625 28.6562 8.65625 32.6562V33.75C8.65625 37.6458 9.45833 40.6458 11.0625 42.75C12.6667 44.8542 14.9583 45.9062 17.9375 45.9062ZM36.3438 32.7812C36.3438 29.4688 36.9896 26.4896 38.2812 23.8438C39.5938 21.1979 41.4062 19.1562 43.7188 17.7188C46.0521 16.2812 48.7083 15.5625 51.6875 15.5625C56.2917 15.5625 60.0104 17.1562 62.8438 20.3438C65.6979 23.5312 67.125 27.7708 67.125 33.0625V33.4688C67.125 36.7604 66.4896 39.7188 65.2188 42.3438C63.9688 44.9479 62.1667 46.9792 59.8125 48.4375C57.4792 49.8958 54.7917 50.625 51.75 50.625C47.1667 50.625 43.4479 49.0312 40.5938 45.8438C37.7604 42.6562 36.3438 38.4375 36.3438 33.1875V32.7812ZM42.1562 33.4688C42.1562 37.2188 43.0208 40.2292 44.75 42.5C46.5 44.7708 48.8333 45.9062 51.75 45.9062C54.6875 45.9062 57.0208 44.7604 58.75 42.4688C60.4792 40.1562 61.3438 36.9271 61.3438 32.7812C61.3438 29.0729 60.4583 26.0729 58.6875 23.7812C56.9375 21.4688 54.6042 20.3125 51.6875 20.3125C48.8333 20.3125 46.5312 21.4479 44.7812 23.7188C43.0312 25.9896 42.1562 29.2396 42.1562 33.4688ZM72.9688 32.8125C72.9688 27.625 74.1979 23.4583 76.6562 20.3125C79.1146 17.1458 82.3333 15.5625 86.3125 15.5625C90.2708 15.5625 93.4062 16.9167 95.7188 19.625V2H101.5V50H96.1875L95.9062 46.375C93.5938 49.2083 90.375 50.625 86.25 50.625C82.3333 50.625 79.1354 49.0208 76.6562 45.8125C74.1979 42.6042 72.9688 38.4167 72.9688 33.25V32.8125ZM78.75 33.4688C78.75 37.3021 79.5417 40.3021 81.125 42.4688C82.7083 44.6354 84.8958 45.7188 87.6875 45.7188C91.3542 45.7188 94.0312 44.0729 95.7188 40.7812V25.25C93.9896 22.0625 91.3333 20.4688 87.75 20.4688C84.9167 20.4688 82.7083 21.5625 81.125 23.75C79.5417 25.9375 78.75 29.1771 78.75 33.4688ZM124.531 50.625C119.948 50.625 116.219 49.125 113.344 46.125C110.469 43.1042 109.031 39.0729 109.031 34.0312V32.9688C109.031 29.6146 109.667 26.625 110.938 24C112.229 21.3542 114.021 19.2917 116.312 17.8125C118.625 16.3125 121.125 15.5625 123.812 15.5625C128.208 15.5625 131.625 17.0104 134.062 19.9062C136.5 22.8021 137.719 26.9479 137.719 32.3438V34.75H114.812C114.896 38.0833 115.865 40.7812 117.719 42.8438C119.594 44.8854 121.969 45.9062 124.844 45.9062C126.885 45.9062 128.615 45.4896 130.031 44.6562C131.448 43.8229 132.688 42.7188 133.75 41.3438L137.281 44.0938C134.448 48.4479 130.198 50.625 124.531 50.625ZM123.812 20.3125C121.479 20.3125 119.521 21.1667 117.938 22.875C116.354 24.5625 115.375 26.9375 115 30H131.938V29.5625C131.771 26.625 130.979 24.3542 129.562 22.75C128.146 21.125 126.229 20.3125 123.812 20.3125ZM213.719 20.2812C216.281 17.1354 219.615 15.5625 223.719 15.5625C230.865 15.5625 234.469 19.5938 234.531 27.6562V50H228.75V27.625C228.729 25.1875 228.167 23.3854 227.062 22.2188C225.979 21.0521 224.281 20.4688 221.969 20.4688C220.094 20.4688 218.448 20.9688 217.031 21.9688C215.615 22.9688 214.51 24.2812 213.719 25.9062V50H207.938V2H213.719V20.2812ZM264.062 46.6562C261.812 49.3021 258.51 50.625 254.156 50.625C250.552 50.625 247.802 49.5833 245.906 47.5C244.031 45.3958 243.083 42.2917 243.062 38.1875V16.1875H248.844V38.0312C248.844 43.1562 250.927 45.7188 255.094 45.7188C259.51 45.7188 262.448 44.0729 263.906 40.7812V16.1875H269.688V50H264.188L264.062 46.6562ZM307.125 33.4688C307.125 38.6354 305.938 42.7917 303.562 45.9375C301.188 49.0625 298 50.625 294 50.625C289.729 50.625 286.427 49.1146 284.094 46.0938L283.812 50H278.5V2H284.281V19.9062C286.615 17.0104 289.833 15.5625 293.938 15.5625C298.042 15.5625 301.26 17.1146 303.594 20.2188C305.948 23.3229 307.125 27.5729 307.125 32.9688V33.4688ZM301.344 32.8125C301.344 28.875 300.583 25.8333 299.062 23.6875C297.542 21.5417 295.354 20.4688 292.5 20.4688C288.688 20.4688 285.948 22.2396 284.281 25.7812V40.4062C286.052 43.9479 288.812 45.7188 292.562 45.7188C295.333 45.7188 297.49 44.6458 299.031 42.5C300.573 40.3542 301.344 37.125 301.344 32.8125Z" fill="black"/>
<path d="M150.641 30.6797L161.645 35.127V38.5723L147.266 31.9102V29.3438L161.645 22.6992V26.1445L150.641 30.6797ZM167.428 44.1973H164.633L175.32 16.4062H178.098L167.428 44.1973ZM193.127 30.5742L181.508 26.0215V22.6816L196.52 29.3262V31.8926L181.508 38.5547V35.1797L193.127 30.5742Z" fill="#556CD6"/>
</g>
<defs>
<clipPath id="clip0">
<rect width="311" height="62" fill="white"/>
</clipPath>
</defs>
</svg>
